<svg xmlns="http://www.w3.org/2000/svg" xmlns:xlink="http://www.w3.org/1999/xlink" contentStyleType="text/css" height="569px" preserveAspectRatio="none" style="width:1837px;height:569px;background:#FFFFFF;" version="1.1" viewBox="0 0 1837 569" width="1837px" zoomAndPan="magnify"><defs/><g><line style="stroke:#181818;stroke-width:0.5;stroke-dasharray:5.0,5.0;" x1="63" x2="63" y1="36.2969" y2="534.0859"/><line style="stroke:#181818;stroke-width:0.5;stroke-dasharray:5.0,5.0;" x1="353.0186" x2="353.0186" y1="36.2969" y2="534.0859"/><line style="stroke:#181818;stroke-width:0.5;stroke-dasharray:5.0,5.0;" x1="677.8325" x2="677.8325" y1="36.2969" y2="534.0859"/><line style="stroke:#181818;stroke-width:0.5;stroke-dasharray:5.0,5.0;" x1="1028.2505" x2="1028.2505" y1="36.2969" y2="534.0859"/><rect fill="#E2E2F0" height="30.2969" rx="2.5" ry="2.5" style="stroke:#181818;stroke-width:0.5;" width="116.293" x="5" y="5"/><text fill="#000000" font-family="sans-serif" font-size="14" lengthAdjust="spacing" textLength="102.293" x="12" y="24.9951">Protocol Entity</text><rect fill="#E2E2F0" height="30.2969" rx="2.5" ry="2.5" style="stroke:#181818;stroke-width:0.5;" width="116.293" x="5" y="533.0859"/><text fill="#000000" font-family="sans-serif" font-size="14" lengthAdjust="spacing" textLength="102.293" x="12" y="553.0811">Protocol Entity</text><rect fill="#E2E2F0" height="30.2969" rx="2.5" ry="2.5" style="stroke:#181818;stroke-width:0.5;" width="181.5557" x="263.0186" y="5"/><text fill="#000000" font-family="sans-serif" font-size="14" lengthAdjust="spacing" textLength="167.5557" x="270.0186" y="24.9951">Virtual Channel Handler</text><rect fill="#E2E2F0" height="30.2969" rx="2.5" ry="2.5" style="stroke:#181818;stroke-width:0.5;" width="181.5557" x="263.0186" y="533.0859"/><text fill="#000000" font-family="sans-serif" font-size="14" lengthAdjust="spacing" textLength="167.5557" x="270.0186" y="553.0811">Virtual Channel Handler</text><rect fill="#E2E2F0" height="30.2969" rx="2.5" ry="2.5" style="stroke:#181818;stroke-width:0.5;" width="183.3125" x="586.8325" y="5"/><text fill="#000000" font-family="sans-serif" font-size="14" lengthAdjust="spacing" textLength="169.3125" x="593.8325" y="24.9951">Master Channel Handler</text><rect fill="#E2E2F0" height="30.2969" rx="2.5" ry="2.5" style="stroke:#181818;stroke-width:0.5;" width="183.3125" x="586.8325" y="533.0859"/><text fill="#000000" font-family="sans-serif" font-size="14" lengthAdjust="spacing" textLength="169.3125" x="593.8325" y="553.0811">Master Channel Handler</text><rect fill="#E2E2F0" height="30.2969" rx="2.5" ry="2.5" style="stroke:#181818;stroke-width:0.5;" width="192.4521" x="932.2505" y="5"/><text fill="#000000" font-family="sans-serif" font-size="14" lengthAdjust="spacing" textLength="178.4521" x="939.2505" y="24.9951">Physical Channel Handler</text><rect fill="#E2E2F0" height="30.2969" rx="2.5" ry="2.5" style="stroke:#181818;stroke-width:0.5;" width="192.4521" x="932.2505" y="533.0859"/><text fill="#000000" font-family="sans-serif" font-size="14" lengthAdjust="spacing" textLength="178.4521" x="939.2505" y="553.0811">Physical Channel Handler</text><line style="stroke:#181818;stroke-width:1.0;" x1="63.1465" x2="105.1465" y1="71.4961" y2="71.4961"/><line style="stroke:#181818;stroke-width:1.0;" x1="105.1465" x2="105.1465" y1="71.4961" y2="84.4961"/><line style="stroke:#181818;stroke-width:1.0;" x1="64.1465" x2="105.1465" y1="84.4961" y2="84.4961"/><polygon fill="#181818" points="74.1465,80.4961,64.1465,84.4961,74.1465,88.4961,70.1465,84.4961" style="stroke:#181818;stroke-width:1.0;"/><text fill="#000000" font-family="sans-serif" font-size="13" lengthAdjust="spacing" textLength="276.6499" x="70.1465" y="66.4302">receiveTelemetryData(rawTelemetryData)</text><path d="M358.6499,51.2969 L358.6499,91.2969 L679.6499,91.2969 L679.6499,61.2969 L669.6499,51.2969 L358.6499,51.2969 " fill="#FEFFDD" style="stroke:#181818;stroke-width:0.5;"/><path d="M669.6499,51.2969 L669.6499,61.2969 L679.6499,61.2969 L669.6499,51.2969 " fill="#FEFFDD" style="stroke:#181818;stroke-width:0.5;"/><text fill="#000000" font-family="sans-serif" font-size="13" lengthAdjust="spacing" textLength="300.2124" x="364.6499" y="68.3638">Telemetry data tied to rate groups is received</text><text fill="#000000" font-family="sans-serif" font-size="13" lengthAdjust="spacing" textLength="249.8247" x="364.6499" y="83.4966">and propagated to the Protocol Entity.</text><polygon fill="#181818" points="341.7964,131.8281,351.7964,135.8281,341.7964,139.8281,345.7964,135.8281" style="stroke:#181818;stroke-width:1.0;"/><line style="stroke:#181818;stroke-width:1.0;" x1="63.1465" x2="347.7964" y1="135.8281" y2="135.8281"/><text fill="#000000" font-family="sans-serif" font-size="13" lengthAdjust="spacing" textLength="261.8408" x="70.1465" y="130.7622">processTelemetryData(serviceDataUnit)</text><path d="M358,101.5625 L358,156.5625 L762,156.5625 L762,111.5625 L752,101.5625 L358,101.5625 " fill="#FEFFDD" style="stroke:#181818;stroke-width:0.5;"/><path d="M752,101.5625 L752,111.5625 L762,111.5625 L752,101.5625 " fill="#FEFFDD" style="stroke:#181818;stroke-width:0.5;"/><text fill="#000000" font-family="sans-serif" font-size="13" lengthAdjust="spacing" textLength="170.0283" x="364" y="118.6294">Processes telemetry data:</text><text fill="#000000" font-family="sans-serif" font-size="13" lengthAdjust="spacing" textLength="248.936" x="364" y="133.7622">- In this example, VCA service is used.</text><text fill="#000000" font-family="sans-serif" font-size="13" lengthAdjust="spacing" textLength="383.3604" x="364" y="148.895">- Telemetry data is placed into the data field with padding.</text><line style="stroke:#181818;stroke-width:1.0;" x1="353.7964" x2="395.7964" y1="194.7266" y2="194.7266"/><line style="stroke:#181818;stroke-width:1.0;" x1="395.7964" x2="395.7964" y1="194.7266" y2="207.7266"/><line style="stroke:#181818;stroke-width:1.0;" x1="354.7964" x2="395.7964" y1="207.7266" y2="207.7266"/><polygon fill="#181818" points="364.7964,203.7266,354.7964,207.7266,364.7964,211.7266,360.7964,207.7266" style="stroke:#181818;stroke-width:1.0;"/><text fill="#000000" font-family="sans-serif" font-size="13" lengthAdjust="spacing" textLength="310.6924" x="360.7964" y="189.6606">generateVirtualChannelFrame(serviceDataUnit)</text><path d="M682.6924,166.9609 L682.6924,221.9609 L1037.6924,221.9609 L1037.6924,176.9609 L1027.6924,166.9609 L682.6924,166.9609 " fill="#FEFFDD" style="stroke:#181818;stroke-width:0.5;"/><path d="M1027.6924,166.9609 L1027.6924,176.9609 L1037.6924,176.9609 L1027.6924,166.9609 " fill="#FEFFDD" style="stroke:#181818;stroke-width:0.5;"/><text fill="#000000" font-family="sans-serif" font-size="13" lengthAdjust="spacing" textLength="275.0313" x="688.6924" y="184.0278">Creates a Virtual Channel Transfer Frame:</text><text fill="#000000" font-family="sans-serif" font-size="13" lengthAdjust="spacing" textLength="311.3018" x="688.6924" y="199.1606">- Adds Primary Header with VCID, Frame Count.</text><text fill="#000000" font-family="sans-serif" font-size="13" lengthAdjust="spacing" textLength="334.3438" x="688.6924" y="214.2935">- Leaves optional fields (FSH, OCF) out as not used.</text><polygon fill="#181818" points="666.4888,255.0586,676.4888,259.0586,666.4888,263.0586,670.4888,259.0586" style="stroke:#181818;stroke-width:1.0;"/><line style="stroke:#181818;stroke-width:1.0;" x1="353.7964" x2="672.4888" y1="259.0586" y2="259.0586"/><text fill="#000000" font-family="sans-serif" font-size="13" lengthAdjust="spacing" textLength="299.127" x="360.7964" y="253.9927">enqueueTransferFrame(virtualChannelFrame)</text><path d="M683,232.3594 L683,272.3594 L1008,272.3594 L1008,242.3594 L998,232.3594 L683,232.3594 " fill="#FEFFDD" style="stroke:#181818;stroke-width:0.5;"/><path d="M998,232.3594 L998,242.3594 L1008,242.3594 L998,232.3594 " fill="#FEFFDD" style="stroke:#181818;stroke-width:0.5;"/><text fill="#000000" font-family="sans-serif" font-size="13" lengthAdjust="spacing" textLength="304.1987" x="689" y="249.4263">Transfers frames from a single Virtual Channel</text><text fill="#000000" font-family="sans-serif" font-size="13" lengthAdjust="spacing" textLength="193.54" x="689" y="264.5591">to the Master Channel queue.</text><line style="stroke:#181818;stroke-width:1.0;" x1="678.4888" x2="720.4888" y1="310.3906" y2="310.3906"/><line style="stroke:#181818;stroke-width:1.0;" x1="720.4888" x2="720.4888" y1="310.3906" y2="323.3906"/><line style="stroke:#181818;stroke-width:1.0;" x1="679.4888" x2="720.4888" y1="323.3906" y2="323.3906"/><polygon fill="#181818" points="689.4888,319.3906,679.4888,323.3906,689.4888,327.3906,685.4888,323.3906" style="stroke:#181818;stroke-width:1.0;"/><text fill="#000000" font-family="sans-serif" font-size="13" lengthAdjust="spacing" textLength="335.9878" x="685.4888" y="305.3247">processMasterChannelFrame(virtualChannelFrame)</text><path d="M1032.9878,282.625 L1032.9878,337.625 L1415.9878,337.625 L1415.9878,292.625 L1405.9878,282.625 L1032.9878,282.625 " fill="#FEFFDD" style="stroke:#181818;stroke-width:0.5;"/><path d="M1405.9878,282.625 L1405.9878,292.625 L1415.9878,292.625 L1405.9878,282.625 " fill="#FEFFDD" style="stroke:#181818;stroke-width:0.5;"/><text fill="#000000" font-family="sans-serif" font-size="13" lengthAdjust="spacing" textLength="225.7354" x="1038.9878" y="299.6919">Processes Virtual Channel Frames:</text><text fill="#000000" font-family="sans-serif" font-size="13" lengthAdjust="spacing" textLength="362.7241" x="1038.9878" y="314.8247">- Adds Master Channel Frame Count to Primary Header.</text><text fill="#000000" font-family="sans-serif" font-size="13" lengthAdjust="spacing" textLength="217.9785" x="1038.9878" y="329.9575">- Skips optional fields (FSH, OCF).</text><polygon fill="#181818" points="1016.4766,378.2891,1026.4766,382.2891,1016.4766,386.2891,1020.4766,382.2891" style="stroke:#181818;stroke-width:1.0;"/><line style="stroke:#181818;stroke-width:1.0;" x1="678.4888" x2="1022.4766" y1="382.2891" y2="382.2891"/><text fill="#000000" font-family="sans-serif" font-size="13" lengthAdjust="spacing" textLength="314.4375" x="685.4888" y="377.2231">enqueueForTransmission(masterChannelFrame)</text><path d="M1033,348.0234 L1033,403.0234 L1348,403.0234 L1348,358.0234 L1338,348.0234 L1033,348.0234 " fill="#FEFFDD" style="stroke:#181818;stroke-width:0.5;"/><path d="M1338,348.0234 L1338,358.0234 L1348,358.0234 L1338,348.0234 " fill="#FEFFDD" style="stroke:#181818;stroke-width:0.5;"/><text fill="#000000" font-family="sans-serif" font-size="13" lengthAdjust="spacing" textLength="294.3535" x="1039" y="365.0903">Queues frames from a single Master Channel</text><text fill="#000000" font-family="sans-serif" font-size="13" lengthAdjust="spacing" textLength="268.8804" x="1039" y="380.2231">for transmission. No multiplexing needed</text><text fill="#000000" font-family="sans-serif" font-size="13" lengthAdjust="spacing" textLength="281.3091" x="1039" y="395.356">as there is only one Master Channel in use.</text><line style="stroke:#181818;stroke-width:1.0;" x1="1028.4766" x2="1070.4766" y1="441.1875" y2="441.1875"/><line style="stroke:#181818;stroke-width:1.0;" x1="1070.4766" x2="1070.4766" y1="441.1875" y2="454.1875"/><line style="stroke:#181818;stroke-width:1.0;" x1="1029.4766" x2="1070.4766" y1="454.1875" y2="454.1875"/><polygon fill="#181818" points="1039.4766,450.1875,1029.4766,454.1875,1039.4766,458.1875,1035.4766,454.1875" style="stroke:#181818;stroke-width:1.0;"/><text fill="#000000" font-family="sans-serif" font-size="13" lengthAdjust="spacing" textLength="292.8809" x="1035.4766" y="436.1216">finalizeTransferFrame(masterChannelFrame)</text><path d="M1339.8809,413.4219 L1339.8809,468.4219 L1830.8809,468.4219 L1830.8809,423.4219 L1820.8809,413.4219 L1339.8809,413.4219 " fill="#FEFFDD" style="stroke:#181818;stroke-width:0.5;"/><path d="M1820.8809,413.4219 L1820.8809,423.4219 L1830.8809,423.4219 L1820.8809,413.4219 " fill="#FEFFDD" style="stroke:#181818;stroke-width:0.5;"/><text fill="#000000" font-family="sans-serif" font-size="13" lengthAdjust="spacing" textLength="103.1748" x="1345.8809" y="430.4888">Finalizes frame:</text><text fill="#000000" font-family="sans-serif" font-size="13" lengthAdjust="spacing" textLength="470.5962" x="1345.8809" y="445.6216">- Calculates CRC and inserts it into the Frame Error Control Field (FECF).</text><text fill="#000000" font-family="sans-serif" font-size="13" lengthAdjust="spacing" textLength="272.2319" x="1345.8809" y="460.7544">- Marks idle frames if no data is available.</text><line style="stroke:#181818;stroke-width:1.0;" x1="1028.4766" x2="1070.4766" y1="499.0195" y2="499.0195"/><line style="stroke:#181818;stroke-width:1.0;" x1="1070.4766" x2="1070.4766" y1="499.0195" y2="512.0195"/><line style="stroke:#181818;stroke-width:1.0;" x1="1029.4766" x2="1070.4766" y1="512.0195" y2="512.0195"/><polygon fill="#181818" points="1039.4766,508.0195,1029.4766,512.0195,1039.4766,516.0195,1035.4766,512.0195" style="stroke:#181818;stroke-width:1.0;"/><text fill="#000000" font-family="sans-serif" font-size="13" lengthAdjust="spacing" textLength="256.7119" x="1035.4766" y="493.9536">transmitTransferFrame(finalizedFrame)</text><path d="M1303.7119,478.8203 L1303.7119,518.8203 L1659.7119,518.8203 L1659.7119,488.8203 L1649.7119,478.8203 L1303.7119,478.8203 " fill="#FEFFDD" style="stroke:#181818;stroke-width:0.5;"/><path d="M1649.7119,478.8203 L1649.7119,488.8203 L1659.7119,488.8203 L1649.7119,478.8203 " fill="#FEFFDD" style="stroke:#181818;stroke-width:0.5;"/><text fill="#000000" font-family="sans-serif" font-size="13" lengthAdjust="spacing" textLength="335.1816" x="1309.7119" y="495.8872">Sends completed frames over the Physical Channel</text><text fill="#000000" font-family="sans-serif" font-size="13" lengthAdjust="spacing" textLength="278.605" x="1309.7119" y="511.02">at a constant rate to meet protocol timing.</text><!--SRC=[dPLHKzim3CVVyobqUrcv0pu03xlZ0XdSZOq1uzsBrTQ7OsUsKkW-_MJ7eNMQPhkzKCwI9Vr_KkHME5ArQeKX-73lBDdQQhWsf6Zx0OI7uQm_Ajfz_sVbg1CQohKm1ZNS22CrkdWlsP8fMVBhTy8JkidRlMdkylrwwrLz9FbW70KeFi8JQcoGt1Qk10bum1fRKjOKkKuu-pHI3XVWs5bjy3r4YB1muZKxE2cC9GIdLcigTjbao4OA9P059zXZvMpNUb1-Y2iBBXDQPrknOeVeIMk4KLVE2sIta2Je6RU0dMlqNfaLX6YL4mt2PpJ8EQTbJZQArRPzf5ojHxTHDOR_VnX5cTYK6ZrG9lkYE8DRmr9OAhw9fjLu2i_b9QHW0K7dKPwptmWOMrejQcQXJA8HpvSAjOHNHMjeXPIiTf_AjA8PgQkU3-Rso6vMSUcGRtaG1sruSiBu9GUFGGA1Iod3nwGQmU9kK4WsHW7FvUtLQMfKQJj3WSCN51iEREDiSjmesCEYUhmvXMzbTGAsep3fN4s2DpSLTvqcnTpVcDHnF5CV7TD1ywl33WT9FPRD8QfyyfEtXsMmXH_RCAWmcHh71HQfkQED4FFcoaOUFRPOQv0sgU2uiZJYcVNVvErcVOmw-lhtZa_M6ziSFkzy7aBZ7rzKEzVtMHfPcu-ncDwDkpvNriNcDOhNY3MBve1EHk9xk7EaotbvnT8weBtGv_3LGhDNCnX46VQW3zFWucQmHc_vpy5iA1FcFiTHAMQcViTD5zVVlf3YYF0v9Ci-u6Zs_q8aLJ502QDG2brtEkwAyg6CfId3cuLu_zDkj_NJSUqSWogj8STBlughRb5Tn-QVCGRtmhUum86vMZA0ztqfDa9fyLDdQFv3UceKvT878F9GzYEdyr3RiD_3wvMginiE5v-nqODT25vWx6yyXGSzledCeK6ay67sJnwf9blkVm00]--></g></svg>