<svg xmlns="http://www.w3.org/2000/svg" xmlns:xlink="http://www.w3.org/1999/xlink" contentStyleType="text/css" height="617px" preserveAspectRatio="none" style="width:506px;height:617px;background:#FFFFFF;" version="1.1" viewBox="0 0 506 617" width="506px" zoomAndPan="magnify"><defs/><g><ellipse cx="250" cy="16" fill="#222222" rx="10" ry="10" style="stroke:#222222;stroke-width:1.0;"/><g id="IDLE"><rect fill="#F1F1F1" height="50" rx="12.5" ry="12.5" style="stroke:#181818;stroke-width:0.5;" width="51.5547" x="224" y="103"/><line style="stroke:#181818;stroke-width:0.5;" x1="224" x2="275.5547" y1="129.2969" y2="129.2969"/><text fill="#000000" font-family="sans-serif" font-size="14" lengthAdjust="spacing" textLength="31.5547" x="234" y="120.9951">IDLE</text></g><path d="M19.5,230 L480.2109,230 A12.5,12.5 0 0 1 492.7109,242.5 L492.7109,289.2344 L7,289.2344 L7,242.5 A12.5,12.5 0 0 1 19.5,230 " fill="#F1F1F1" style="stroke:#F1F1F1;stroke-width:1.0;"/><rect fill="none" height="381.4688" rx="12.5" ry="12.5" style="stroke:#181818;stroke-width:0.5;" width="485.7109" x="7" y="230"/><line style="stroke:#181818;stroke-width:0.5;" x1="7" x2="492.7109" y1="289.2344" y2="289.2344"/><line style="stroke:#181818;stroke-width:0.5;" x1="7" x2="492.7109" y1="256.2969" y2="256.2969"/><text fill="#000000" font-family="sans-serif" font-size="14" lengthAdjust="spacing" textLength="71.5107" x="214.1001" y="247.9951">IN_FLIGHT</text><text fill="#000000" font-family="sans-serif" font-size="12" lengthAdjust="spacing" textLength="139.8633" x="12" y="267.4355">Entry: initFlightStatus()</text><text fill="#000000" font-family="sans-serif" font-size="12" lengthAdjust="spacing" textLength="294.9902" x="12" y="281.4043">Internal: UPDATE_INTERVAL/updateFlightStatus()</text><ellipse cx="249" cy="310.2344" fill="#222222" rx="10" ry="10" style="stroke:#222222;stroke-width:1.0;"/><g id="IN_FLIGHT.FIRING"><rect fill="#F1F1F1" height="50.2656" rx="12.5" ry="12.5" style="stroke:#181818;stroke-width:0.5;" width="152.5391" x="172.5" y="357.2344"/><line style="stroke:#181818;stroke-width:0.5;" x1="172.5" x2="325.0391" y1="383.5313" y2="383.5313"/><text fill="#000000" font-family="sans-serif" font-size="14" lengthAdjust="spacing" textLength="47.3594" x="225.0898" y="375.2295">FIRING</text><text fill="#000000" font-family="sans-serif" font-size="12" lengthAdjust="spacing" textLength="132.5391" x="177.5" y="399.6699">Entry: engageThrust()</text></g><g id="IN_FLIGHT.GLIDING"><rect fill="#F1F1F1" height="64.2344" rx="12.5" ry="12.5" style="stroke:#181818;stroke-width:0.5;" width="459.7109" x="19" y="537.2344"/><line style="stroke:#181818;stroke-width:0.5;" x1="19" x2="478.7109" y1="563.5313" y2="563.5313"/><text fill="#000000" font-family="sans-serif" font-size="14" lengthAdjust="spacing" textLength="59.0078" x="219.3516" y="555.2295">GLIDING</text><text fill="#000000" font-family="sans-serif" font-size="12" lengthAdjust="spacing" textLength="149.7422" x="24" y="579.6699">Entry: disengageThrust()</text><text fill="#000000" font-family="sans-serif" font-size="12" lengthAdjust="spacing" textLength="439.7109" x="24" y="593.6387">Internal: UPDATE_INTERVAL/updateFlightStatus(); checkLowAltReached()</text></g><g id="elem_tBurnCheck"><polygon fill="#F1F1F1" points="249,460.2344,261,472.2344,249,484.2344,237,472.2344,249,460.2344" style="stroke:#181818;stroke-width:0.5;"/></g><!--link *start*IN_FLIGHT to FIRING--><g id="link_*start*IN_FLIGHT_FIRING"><path d="M249,320.3844 C249,329.6544 249,338.3744 249,351.0144 " fill="none" id="*start*IN_FLIGHT-to-FIRING" style="stroke:#181818;stroke-width:1.0;"/><polygon fill="#181818" points="249,357.0144,253,348.0144,249,352.0144,245,348.0144,249,357.0144" style="stroke:#181818;stroke-width:1.0;"/></g><!--link FIRING to tBurnCheck--><g id="link_FIRING_tBurnCheck"><path d="M249,407.2844 C249,424.3844 249,440.5744 249,453.8244 " fill="none" id="FIRING-to-tBurnCheck" style="stroke:#181818;stroke-width:1.0;"/><polygon fill="#181818" points="249,459.8244,253,450.8244,249,454.8244,245,450.8244,249,459.8244" style="stroke:#181818;stroke-width:1.0;"/><text fill="#000000" font-family="sans-serif" font-size="13" lengthAdjust="spacing" textLength="166.5752" x="250" y="438.3013">TBURN_CHECK_INTERVAL</text></g><!--link tBurnCheck to GLIDING--><g id="link_tBurnCheck_GLIDING"><path d="M249,484.5044 C249,497.3844 249,513.0044 249,531.0544 " fill="none" id="tBurnCheck-to-GLIDING" style="stroke:#181818;stroke-width:1.0;"/><polygon fill="#181818" points="249,537.0544,253,528.0544,249,532.0544,245,528.0544,249,537.0544" style="stroke:#181818;stroke-width:1.0;"/><text fill="#000000" font-family="sans-serif" font-size="13" lengthAdjust="spacing" textLength="125.9883" x="250" y="515.3013">[isTBurnReached()]</text></g><!--link *start* to IDLE--><g id="link_*start*_IDLE"><path d="M250,26 C250,42.63 250,72.66 250,96.87 " fill="none" id="*start*-to-IDLE" style="stroke:#181818;stroke-width:1.0;"/><polygon fill="#181818" points="250,102.87,254,93.87,250,97.87,246,93.87,250,102.87" style="stroke:#181818;stroke-width:1.0;"/><text fill="#000000" font-family="sans-serif" font-size="13" lengthAdjust="spacing" textLength="112.7979" x="251" y="69.0669">/initFlightStatus()</text></g><!--link IDLE to IN_FLIGHT--><g id="link_IDLE_IN_FLIGHT"><path d="M223.91,153.01 C216.31,161.64 208.99,171.98 205,183 C199.56,198.03 197.0675,207.8584 196.2175,223.8984 " fill="none" id="IDLE-to-IN_FLIGHT" style="stroke:#181818;stroke-width:1.0;"/><polygon fill="#181818" points="195.9,229.89,200.3707,221.1143,196.1646,224.897,192.3819,220.6909,195.9,229.89" style="stroke:#181818;stroke-width:1.0;"/><text fill="#000000" font-family="sans-serif" font-size="13" lengthAdjust="spacing" textLength="43.6211" x="206" y="196.0669">IGNITE</text></g><!--link IN_FLIGHT to IDLE--><g id="link_IN_FLIGHT_IDLE"><path d="M255.01,229.73 C254.88,213.92 254.56,198.18 254,183 C253.64,173.23 253.3849,168.4712 252.6449,159.1512 " fill="none" id="IN_FLIGHT-to-IDLE" style="stroke:#181818;stroke-width:1.0;"/><polygon fill="#181818" points="252.17,153.17,248.8949,162.4584,252.5658,158.1543,256.8698,161.8252,252.17,153.17" style="stroke:#181818;stroke-width:1.0;"/><text fill="#000000" font-family="sans-serif" font-size="13" lengthAdjust="spacing" textLength="75.0103" x="255" y="196.0669">TERMINATE</text></g><!--SRC=[bL9DQuD04BtxA-QMjX1ojo6GZzKiDRPOKmeXX5M7k5Gqk6j4IlvxTzMe2RbqJxlZUyytCs_tieVnU0PqvH0JOC9JBgs47sFvAPainDEpOGXrmne1lyQbUxi7ow7ssbT5K6VNAbdKewvTbpg8ILAPLoOyKDUuaKM_DmJ2B1LPmYEjBcCkWAMHkY3uYwtdAhB4_CoIEscgoobBJDX-hEO-EL3N9zxNt9aK9orrturcDnqqJblx-ZI5grbCZ-o8VfmNGhP6BmEsxT3LBRsjNFaH5myaXi3_MN-5CCRmnydAUI8zPEeLtVWQkUy-QIOdugn88ZZbMS22f8808STJmaAC8AZKO07FcCg65XGIIeIIAJjgu1aeO0Kbbx5UISGbLuk167CSj2yNHPukjI6OJiCuuo7EPaO_nJeBFSXibdXOhidohUkpnW-KDESw7DXnuUjFNQjxGwUlpc4TsIu2G6sN-iJe8zb7MlreGrqrNECF]--></g></svg>